Patient4_TMGait_0pt8_01_right_20_EMG.mot
version=1
nRows=40
nColumns=33
inDegrees=no
endheader
time	1LAddLong	2LGlutMax	3LGlutMed	4LIliopsoas	5LSemiMemb	6LBicFemLong	7LRecFem	8LVastMed	9LVastLat	10LGasMed	11LTibAnt	12lTibPost	13LPeroneusLong	14LSol	15LExtDigLong	16LFlexDigLong	17RAddLong	18RGlutMax	19RGlutMed	20RIliopsoas	21RSemiMemb	22RBicFemLong	23RRecFem	24RVastMed	25RVastLat	26RGasMed	27RTibAnt	28RTibPost	29RPeroneusLong	30RSol	31RExtDigLong	32RFlexDigLong
22.647	0.002594	0.14801	0.24002	0.002136	0.027313	-0.010529	0.007324	0.036163	-0.048218	-0.029297	0.22964	-0.002441	-0.12573	0.1059	0.25391	0.019379	0.012207	-0.18784	-0.22217	-0.029602	-0.039063	0.63522	-0.17242	-0.1828	-0.044708	-0.16342	-0.47669	0.08606	-0.67429	0.12848	0.001831	-0.02533
22.648	0.000305	0.14969	0.22385	0.020294	0.032349	0.035248	-0.14374	0.032654	-0.027771	-0.022278	0.36697	-0.000763	-0.15701	0.073242	0.57068	0.015564	0.001526	-0.112	-0.030975	-0.02243	0.14267	0.24963	-0.0383	-0.03891	-0.042572	-0.006104	-0.44739	-0.045013	-0.78491	0.70053	-0.000916	-0.027771
22.649	-0.001526	0.14114	0.21912	0.010376	0.019073	0.027008	-0.21713	0.025024	-0.033569	-0.016174	0.20676	0.005188	-0.17075	0.068359	0.52353	0.011749	0.027313	-0.17563	-0.3389	-0.028839	0.15732	0.068054	0.04425	0.001526	-0.045624	0.15015	-0.28458	-0.45502	-0.95673	1.2544	-0.001984	-0.024567
22.65	0.016937	0.14297	0.19211	0.009613	0.012512	0.010529	-0.23819	0.014191	-0.062256	-0.028839	-0.11353	0.003052	-0.11765	0.090179	0.37003	0.007172	0.059052	-0.26901	-0.89355	-0.031128	0.12909	-0.018768	0.11841	-0.016327	-0.06134	0.17975	0.34668	-0.35446	-0.94498	0.91187	-0.001678	-0.024872
22.651	0.003967	0.093536	0.15305	-0.011292	0.003967	-0.015869	-0.17593	0	-0.054626	-0.05188	0.05188	0.000763	-0.09201	0.15564	0.6546	0.017395	0.069122	-0.29343	-0.67673	0.022736	0.10178	0.043182	0.17181	-0.049133	-0.079346	0.06134	0.68085	-0.069885	-0.24536	0.62592	0.003357	-0.02243
22.652	0.002441	0.083923	0.15457	-0.024719	0.008698	-0.021973	-0.11795	0.001526	-0.057068	-0.016174	0.10239	0.001068	-0.16357	0.17151	-0.050354	0.013275	0.075226	-0.25299	-0.43976	0.033417	-0.086975	0.26276	0.19516	-0.056305	-0.07309	-0.013733	0.9671	0.008545	-0.23102	0.62149	-0.001221	-0.036621
22.653	0.003815	0.051422	0.13382	-0.021667	-0.006561	-0.011749	-0.14481	0.005035	-0.046997	0.001678	-0.058899	-0.001221	-0.11017	0.036163	0.11307	0.020294	0.014954	-0.20477	-0.54718	0.027313	-0.098724	0.44052	0.21881	-0.012817	-0.057068	-0.06012	1.0797	-0.53406	0.19775	0.17044	-0.000458	-0.037537
22.654	0.000458	0.025635	0.16403	-0.015869	0.005798	-0.023499	-0.16312	0.001526	-0.050049	-0.027161	-0.16571	0.004272	-0.053711	0.008392	-0.79086	0.021362	0.021362	-0.17838	-0.22415	-0.084991	-0.03418	0.22247	0.23773	-0.093842	-0.091553	-0.13748	0.69458	-0.061646	0.035858	-0.39764	-0.000305	-0.037079
22.655	0.006866	0.011902	0.18997	0.002136	0.003967	-0.018005	-0.041046	-0.011749	-0.046539	-0.015564	-0.070648	0.002899	-0.052185	0.13794	-0.1503	-0.003052	0.016174	-0.004272	-0.70847	-0.10483	-0.23621	0.15152	0.15076	-0.074158	-0.12482	-0.095978	-0.95123	0.11963	-0.05722	-0.10117	-0.00061	-0.033569
22.656	-0.000916	-0.015106	0.16281	-0.002747	0.002899	-0.022888	0.062561	0	-0.052338	-0.011597	-0.11017	-0.003967	0.016937	0.1915	-0.23483	-0.004578	-0.051727	0.23483	-1.0742	-0.066833	0.031586	0.18188	0.043182	-0.056152	-0.097809	0.056915	-0.82993	1.1086	0.15823	-0.003204	0.001831	-0.018921
22.657	-0.000153	-0.05661	0.1091	-0.022583	0.009613	-0.006256	0.11871	-0.003967	-0.079803	0.002899	-0.31723	-0.003204	-0.00412	0.15457	-0.28137	-0.026398	-0.061188	0.28458	-0.61966	-0.054016	0.075226	0.033722	-0.002441	-0.010834	-0.00351	0.1387	-0.41763	0.43381	0.57846	-0.14969	0.001831	-0.027771
22.658	-0.005341	-0.036926	0.094604	-0.019379	0.005341	0.012207	0.17716	0.014343	-0.093994	-0.003815	-0.25894	-0.00412	-0.041504	0.065002	-0.072632	-0.031433	-0.040741	0.29373	0.5278	-0.057373	-0.011597	-0.10117	0.059357	0.14877	0.022888	0.074158	-1.0672	0.072937	0.57861	-0.8786	0.003357	-0.027771
22.659	0.001221	-0.077667	0.10605	-0.014038	0.000916	0.005798	0.27741	0.009003	-0.10513	-0.022888	-0.23865	0.003662	0.060883	0.039673	-0.092926	-0.018311	0.013275	0.087891	-0.15915	0.007324	0.037231	-0.32745	0.14877	0.073242	0.000763	0.047607	-0.86624	-0.019531	0.76645	-0.34714	-0.000305	-0.025787
22.66	-0.083771	-0.10788	0.13825	-0.01709	-0.005646	-0.005951	0.35248	0.011292	-0.11887	0.015259	-0.1059	-0.001373	-0.003052	0.024719	-0.075836	-0.023956	0.042267	-0.030975	-0.30151	0.055847	0.25314	-0.53162	0.25375	-0.023956	-0.048065	0.048981	-0.62897	-0.10193	0.69702	0.79117	0.001984	-0.011902
22.661	0.036774	-0.10162	0.13794	0.012054	-0.002441	-0.001526	0.38071	0.008392	-0.10361	0.027618	0.12497	0.001373	-0.060577	0.077972	-0.13947	-0.009766	0.033722	-0.20813	-0.4953	0.020294	0.15945	-0.64651	0.30533	-0.083923	-0.063782	0.039825	-0.15976	-0.20874	0.45624	1.657	0	-0.004272
22.662	-0.023499	-0.071564	0.13641	0.037231	-0.004578	-0.014191	0.37384	0.021057	-0.11734	-0.003357	0.008545	0.002594	-0.018005	0.15533	-0.24216	0.006409	0.005798	-0.52795	-0.64529	-0.024414	-0.084076	-0.3743	0.30914	-0.016632	0.024414	0.088043	0.03067	-0.097961	0.36743	1.0268	0.001221	-0.002441
22.663	-0.00412	-0.08316	0.12589	0.052338	0.00061	-0.013733	0.39551	0.01709	-0.11963	-0.005341	-0.08316	0.003204	-0.006409	0.11292	0.050812	-0.005341	-0.04364	-0.72525	-0.73624	-0.091095	-0.14603	-0.045319	0.19806	0.013275	0.014496	0.046692	0.31403	-0.16312	0.17654	0.29388	-0.001831	-0.009766
22.664	-0.017395	-0.075836	0.1178	0.02182	0.001221	-0.024414	0.42206	0.019531	-0.11475	0.030975	-0.066376	0.00351	-0.048065	0.091553	0.21194	0.000916	-0.071106	-0.8725	-0.65247	-0.057983	0.22232	-0.13718	-0.063324	0.048676	-0.057831	-0.04837	0.38116	-0.052185	-0.32623	-0.18249	-0.002136	-0.019836
22.665	-0.013885	-0.034943	0.099487	-0.034027	0.000153	-0.027313	0.38773	0.011292	-0.091553	0.056915	-0.014343	0.003967	-0.10407	0.059509	0.22934	-0.014954	-0.037231	-1.1107	-1.0829	0.002594	0.19775	-0.15396	-0.21042	0.14908	-0.057678	-0.19455	0.24597	0.030975	-0.13596	-0.42129	0.001068	-0.019531
22.666	-0.00351	-0.027313	0.098114	-0.037231	0.005035	-0.029602	0.4042	0.014038	-0.10193	0.041351	-0.002441	0.000305	-0.096283	0.10529	0.13565	-0.017853	0.000916	-1.1496	-0.99762	0.000458	0.12421	-0.18433	-0.1358	0.30975	0.034943	-0.061035	0.24857	0.098114	0.48431	-0.72555	0.000458	-0.027924
22.667	-0.000916	-0.020905	0.088654	-0.016785	0.00412	-0.023041	0.41061	0.008392	-0.073853	0.027161	-0.037689	0.007477	-0.028992	0.14893	0.001373	-0.026093	0.027618	-1.2663	-0.86853	0.045776	0.043793	-0.36667	-0.056763	0.25055	0.02655	-0.043945	0.42236	-0.16403	0.60165	-0.95154	0.002136	-0.024719
22.668	-0.001373	-0.006714	0.077972	0.004425	0.005493	-0.040588	0.35461	0.015259	-0.047607	0.043945	-0.011902	0.001526	-0.020752	0.17868	-0.14923	-0.040131	0.016632	-1.3628	-0.97885	0.10864	0.001678	-0.53772	0.099487	0.1738	0.044708	-0.20264	0.43427	-0.13031	0.2243	-1.0161	0.007019	-0.033875
22.669	-0.008392	-0.01709	0.073853	0.003357	0.009308	-0.036926	0.3537	0.014954	-0.044861	0.045471	0.058441	0.00473	-0.027771	0.11383	0.028839	-0.039978	0.027924	-1.544	-0.87189	0.047455	-0.020905	-0.6424	0.25726	0.10788	0.025177	-0.30334	0.37537	0.030212	-0.25681	-1.6873	0.001373	-0.031281
22.67	-0.004425	-0.010834	0.080261	-0.031586	0.010071	-0.037537	0.4599	-0.005188	-0.033569	0.025177	0.12085	0.005798	-0.063019	0.10849	-0.053558	-0.032349	0.059814	-1.7371	-0.75638	0.065918	-0.11246	-0.63828	0.24994	0.000916	-0.000153	-0.13763	-0.022888	-0.16296	-0.013885	-0.83496	-0.001984	-0.009003
22.671	-0.001373	-0.00061	0.08606	-0.036926	0.00473	-0.044098	0.45593	0.014343	-0.037994	0.041046	0.14114	0.010071	-0.10574	0.095978	0.2536	-0.018158	0.075073	-1.837	-0.784	0.083618	-0.039063	-0.41718	0.18478	-0.007782	-0.008698	0.082092	-0.36377	-0.050354	-0.009003	0.24612	-0.002441	-0.004578
22.672	-0.002289	-0.00061	0.058289	-0.017395	0.00885	-0.031738	0.41855	-0.001678	-0.015259	0.014038	0.23697	0.007477	-0.075684	0.072174	0.14038	-0.005188	0.045624	-1.8095	-0.89035	0.070343	0.02594	-0.32288	0.1355	-0.099945	-0.048828	0.12375	0.11856	-0.097809	-0.17303	-0.063782	0.000153	-0.00885
22.673	-0.001984	-0.042725	0.028992	-0.023804	0.002899	-0.040894	0.44937	-0.00824	-0.032043	0.013885	0.17822	0.009918	-0.10025	0.14954	0.13428	-0.007172	-0.044861	-1.8456	-0.79178	0.022278	-0.19089	-0.17868	0.16693	0.011597	0.018616	0.032349	0.40146	-0.083923	-0.18326	-0.60226	-0.002899	-0.023804
22.674	-0.012665	-0.035248	0.028229	-0.002747	0.011139	-0.04303	0.45242	0.003815	-0.032959	-0.005188	0.17792	0.009308	-0.055237	0.22476	-0.080261	-0.020599	-0.088806	-1.9485	-0.89783	-0.010986	-0.22171	0.019226	0.1622	0.11154	-0.010071	0.1152	0.81955	-0.40298	-0.26291	-0.14954	-0.000305	-0.030518
22.675	-0.011749	0.032196	-0.00946	-0.000305	0.007172	-0.035553	0.39352	-0.008545	-0.015869	0.017548	0.071259	0.007629	-0.098572	0.2475	-0.019684	-0.018311	-0.075836	-1.9063	-0.66544	-0.005188	0.14679	0.083466	0.028076	0.072479	-0.092316	0.21668	0.90775	0.15411	-0.27039	0.2385	0.002441	-0.028229
22.676	-0.010376	0.11826	0.032501	-0.005188	0.01297	-0.041504	0.31738	0.002136	-0.00946	0.076599	0.038757	0.002747	-0.21347	0.14847	-0.1004	-0.020447	-0.063934	-1.7424	-0.54962	0.037689	0.31479	0.11017	-0.090942	0.007935	-0.081787	0.16266	0.59326	0.23193	-0.054169	0.84259	-0.002747	-0.014954
22.677	-0.01297	0.27985	0.057526	0.026093	0.009155	-0.033722	0.27069	0.007477	0.001526	0.11887	-0.046082	-0.001221	-0.19684	0.014343	-0.29205	-0.006866	-0.033875	-1.5417	-0.47913	0.060425	0.15121	0.068054	0.004883	0.05249	-0.081329	0.1358	0.083771	-0.000153	0.17212	1.1357	-0.000763	-0.00473
22.678	-0.011749	0.4953	0.083771	0.022278	0.013275	-0.040436	0.2652	0.004272	0.010529	0.048828	-0.21423	0.002899	-0.038147	0.058136	-0.24139	-0.002136	-0.034027	-1.3347	-0.76813	-0.10315	0.16998	0.01709	0.059662	0.065308	-0.067444	0.058289	-0.3685	0.006256	0.25024	0.45593	0.003052	0.001526
22.679	-0.010376	0.77621	0.074463	-0.010529	0.011902	-0.035553	0.17517	0.00824	0.020752	0.041504	-0.18448	0.004578	0.081635	0.055695	0.56397	-0.010223	-0.046539	-1.1801	-0.8638	-0.1831	0.16281	0.075378	-0.010681	0.075989	-0.034943	-0.072937	-0.24231	-0.31433	0.21088	-0.002899	-0.001526	-0.005951
22.68	-0.005951	1.0246	0.099182	-0.019989	0.007935	-0.041504	0.11246	0.004425	0.022278	0.073853	-0.078888	0.000763	0.04364	0.051727	-0.070343	-0.013885	-0.014496	-0.97076	-0.86472	-0.24155	0.018921	0.3981	0.01297	0.11429	0.069122	-0.1799	-0.52795	-0.26413	0.018005	-0.45151	0.006256	-0.012512
22.681	-0.001068	1.2561	0.084686	0.011597	0.011292	-0.044861	0.17487	0.010376	0.035248	0.033722	-0.28488	0.002747	0.039063	0.088348	-0.22964	0.000153	-0.010071	-0.70587	-0.66879	-0.065002	-0.15045	0.31769	0.09903	0.091095	0.11429	-0.040436	-0.62592	0.13077	-0.10956	-0.55893	-0.000305	-0.020447
22.682	-0.004272	1.4682	0.073853	0.005493	0.014343	-0.06012	0.30182	0.017548	0.049591	0.038452	-0.16373	0.002747	0.024872	0.079651	-0.16739	-0.010376	0.01236	-0.55023	-0.34973	0.15503	-0.072937	0.036316	0.27634	0.054779	-0.022583	-0.008392	-0.46234	0.074158	-0.12756	-0.27313	-0.003204	-0.016022
22.683	-0.003967	1.5932	0.06897	-0.007629	0.006256	-0.062103	0.28381	0.000763	0.026398	0.042419	-0.12238	0	-0.032654	0.10727	-0.032501	-0.018616	0.012665	-0.39337	-0.78354	0.15289	0.097961	-0.033569	0.2945	-0.06424	-0.092468	-0.061493	-0.10941	0.1088	-0.039368	-0.66528	-0.002441	-0.015869
22.684	-0.000458	1.6891	0.058441	-0.010834	0.012817	-0.065308	0.24246	0.00885	0.016327	0.056915	-0.019226	0.003357	-0.063019	0.14343	-0.094147	-0.017548	-0.011292	-0.26077	-0.72525	0.077362	0.13794	-0.095215	0.069733	-0.042877	-0.089722	0.021515	0.36118	0.052643	-0.18143	-0.19867	0.000153	-0.003662
22.685	0.007324	1.7484	0.070801	-0.017548	0.017242	-0.063782	0.31143	0.031281	0.026245	0.082245	0.06134	0.000763	-0.11795	0.1326	-0.10834	-0.019684	-0.032196	-0.090637	-1.0185	-0.003357	0.17654	-0.10971	-0.11719	-0.04364	0.072937	-0.054626	0.077057	-0.021515	-0.099335	-0.22751	0.002289	-0.006561
22.686	0.005951	1.7513	0.049286	-0.005341	0.014496	-0.054016	0.35996	0.019989	0.015869	0.1059	0.10742	-0.00885	-0.15717	-0.010376	-0.26886	-0.010223	-0.033417	0.062256	-0.6868	-0.088959	0.010376	-0.15808	-0.1294	0.075531	0.19623	0.029602	0.39948	0.029907	-0.15045	-0.25604	-0.001373	0
